<mxfile host="app.diagrams.net" modified="2023-11-01T21:54:53.731Z" agent="Mozilla/5.0 (X11; Linux x86_64) AppleWebKit/537.36 (KHTML, like Gecko) Chrome/118.0.0.0 Safari/537.36 OPR/104.0.0.0" version="22.0.8" etag="SqrCsQzxMnRrGENtyUAl" type="github">
  <diagram name="Страница — 1" id="AOw4Vj3bBIxW8XWZ4acl">
    <mxGraphModel>
      <root>
        <mxCell id="0" />
        <mxCell id="1" parent="0" />
      </root>
    </mxGraphModel>
  </diagram>
</mxfile>
